<svg width="24" height="8" viewBox="0 0 24 8" fill="none" xmlns="http://www.w3.org/2000/svg">
<path d="M21.7125 0H16.8324C16.7942 0 16.7576 0.0151429 16.7301 0.0424001L15.3137 1.45826C15.2862 1.48552 15.2725 1.52035 15.2725 1.55821V6.44179C15.2725 6.47965 15.2877 6.51599 15.3137 6.54174L16.7301 7.9576C16.7576 7.98486 16.7942 8 16.8324 8H21.7125C21.7507 8 21.7874 7.98486 21.8149 7.9576L23.2312 6.54174C23.2572 6.51448 23.2725 6.47965 23.2725 6.44179V5.05925C23.2725 5.02139 23.2572 4.98656 23.2312 4.9593L22.8156 4.54287C22.7881 4.51562 22.7515 4.50047 22.7133 4.50047H20.4168C20.3374 4.50047 20.2732 4.56407 20.2732 4.64282V4.85936C20.2732 4.9381 20.2091 5.0017 20.1296 5.0017H18.4168C18.3374 5.0017 18.2732 4.9381 18.2732 4.85936V3.14367C18.2732 3.06492 18.3374 3.00132 18.4168 3.00132H20.1296C20.2091 3.00132 20.2732 3.06492 20.2732 3.14367V3.35264C20.2732 3.43138 20.3374 3.49498 20.4168 3.49498H22.7133C22.7515 3.49498 22.7881 3.47984 22.8141 3.4541L23.2297 3.04373C23.2572 3.01647 23.2725 2.98012 23.2725 2.94227V1.55972C23.2725 1.52186 23.2572 1.48552 23.2312 1.45978L21.8149 0.0439144C21.7874 0.0151429 21.7507 0 21.7125 0Z" fill="white"/>
<path d="M7.44079 0H5.55997C5.52177 0 5.4851 0.0151372 5.4576 0.0423841L5.04202 0.458657C5.01604 0.485904 5.00076 0.520719 5.00076 0.558562V2.15402C5.00076 2.28117 4.84492 2.34475 4.75477 2.25393L2.5424 0.0423841C2.5149 0.0151372 2.47823 0 2.44003 0H0.560733C0.522536 0 0.484339 0.0151372 0.458365 0.0423841L0.0412529 0.458657C0.0152788 0.48439 0 0.520719 0 0.558562V7.43992C0 7.47777 0.0152788 7.5141 0.0412529 7.53983L0.458365 7.95762C0.485867 7.98486 0.522536 8 0.560733 8H2.44156C2.47976 8 2.51642 7.98486 2.54393 7.95762L2.95951 7.54134C2.98701 7.5141 3.00076 7.47777 3.00076 7.44144V5.84598C3.00076 5.71883 3.15661 5.65525 3.24675 5.74607L5.45913 7.95762C5.48663 7.98486 5.5233 8 5.5615 8H7.44079C7.47899 8 7.51566 7.98486 7.54316 7.95762L7.95875 7.54134C7.98472 7.5141 8 7.47777 8 7.44144V0.558562C8 0.520719 7.98472 0.48439 7.95875 0.458657L7.54316 0.0423841C7.51566 0.0151372 7.47899 0 7.44079 0Z" fill="white"/>
<path d="M10.7813 8H12.4914C12.5262 8 12.5595 7.98486 12.5845 7.95762L12.9624 7.54134C12.986 7.5141 12.9999 7.47928 12.9999 7.44144V6.05941C12.9999 6.02157 13.0138 5.98524 13.0374 5.95951L15.2352 3.54361C15.2588 3.51637 15.2727 3.48155 15.2727 3.44371V0.558562C15.2727 0.520719 15.2588 0.48439 15.2352 0.458657L14.8573 0.0423841C14.8337 0.0151372 14.799 0 14.7643 0H13.0555C13.0208 0 12.9874 0.0151372 12.9624 0.0423841L12.5845 0.458657C12.5595 0.485904 12.547 0.522233 12.547 0.558562V1.44106C12.547 1.4789 12.5331 1.51523 12.5095 1.54097L11.7315 2.39773C11.6801 2.45374 11.5968 2.45374 11.5454 2.39773L10.7674 1.54097C10.741 1.51523 10.7271 1.4789 10.7271 1.44106V0.558562C10.7271 0.520719 10.7132 0.48439 10.6896 0.458657L10.3117 0.0423841C10.2867 0.0151372 10.2534 0 10.2186 0H8.50847C8.47373 0 8.44039 0.0151372 8.41539 0.0423841L8.03751 0.458657C8.01389 0.485904 8 0.522233 8 0.558562V3.44068C8 3.47852 8.01389 3.51485 8.03751 3.54059L10.2353 5.95648C10.2589 5.98373 10.2728 6.02006 10.2728 6.05639V7.43841C10.2728 7.47625 10.2867 7.51258 10.3103 7.53832L10.6882 7.95459C10.7132 7.98486 10.7465 8 10.7813 8Z" fill="white"/>
</svg>
