<svg width="41" height="40" viewBox="0 0 41 40" fill="none" xmlns="http://www.w3.org/2000/svg">
<mask id="path-1-inside-1" fill="white">
<path fill-rule="evenodd" clip-rule="evenodd" d="M18.8661 0H14.0973C14.0004 0 13.9075 0.0381902 13.8377 0.106933L12.784 1.15716C12.7182 1.22591 12.6794 1.31374 12.6794 1.40922V5.43447C12.6794 5.75527 12.2843 5.91567 12.0557 5.68653L6.44624 0.106933C6.37651 0.0381902 6.28354 0 6.18669 0H1.42174C1.32489 0 1.22804 0.0381902 1.16218 0.106933L0.104597 1.15716C0.0387395 1.22209 0 1.31374 0 1.40922V18.7705C0 18.866 0.0387395 18.9576 0.104597 19.0226L1.16218 20.0766C1.23191 20.1454 1.32489 20.1835 1.42174 20.1835H6.19056C6.28741 20.1835 6.38039 20.1454 6.45012 20.0766L7.50383 19.0264C7.57356 18.9576 7.60843 18.866 7.60843 18.7743V14.7491C7.60843 14.4283 8.00357 14.2679 8.23213 14.497L13.8416 20.0766C13.9113 20.1454 14.0043 20.1835 14.1012 20.1835H18.8661C18.963 20.1835 19.0559 20.1454 19.1257 20.0766L20.1794 19.0264C20.2452 18.9576 20.284 18.866 20.284 18.7743V9.1111L26.2332 15.0279C26.299 15.0966 26.3378 15.1883 26.3378 15.2799V18.7667C26.3378 18.8533 26.3697 18.9368 26.4247 19H23.9553C23.8584 19 23.7655 19.0382 23.6957 19.1069L20.1046 22.6777C20.0349 22.7465 20 22.8343 20 22.9298V35.2461C20 35.3416 20.0387 35.4333 20.1046 35.4982L23.6957 39.069C23.7655 39.1377 23.8584 39.1759 23.9553 39.1759H36.3287C36.4255 39.1759 36.5185 39.1377 36.5882 39.069L40.1794 35.4982C40.2452 35.4294 40.284 35.3416 40.284 35.2461V31.7594C40.284 31.6639 40.2452 31.576 40.1794 31.5073L39.1257 30.4571C39.0559 30.3883 38.963 30.3501 38.8661 30.3501H33.0436C32.8421 30.3501 32.6794 30.5105 32.6794 30.7091V31.2553C32.6794 31.4538 32.5167 31.6142 32.3153 31.6142H27.9726C27.7711 31.6142 27.6084 31.4538 27.6084 31.2553V26.9283C27.6084 26.7297 27.7711 26.5693 27.9726 26.5693H32.3153C32.5167 26.5693 32.6794 26.7297 32.6794 26.9283V27.4553C32.6794 27.6539 32.8421 27.8143 33.0436 27.8143H38.8661C38.963 27.8143 39.0559 27.7761 39.1218 27.7112L40.1755 26.6762C40.2452 26.6075 40.284 26.5158 40.284 26.4204V22.9336C40.284 22.8381 40.2452 22.7465 40.1794 22.6815L36.5882 19.1108C36.5185 19.0382 36.4255 19 36.3287 19H33.8609C33.9126 18.9358 33.9423 18.858 33.9423 18.7743V15.2876C33.9423 15.1921 33.9811 15.1004 34.0469 15.0355L40.1755 8.94034C40.2414 8.87159 40.2801 8.78376 40.2801 8.68828V1.40922C40.2801 1.31374 40.2414 1.22209 40.1755 1.15716L39.1218 0.106933C39.0559 0.0381902 38.9591 0 38.8622 0H34.0973C34.0004 0 33.9075 0.0381902 33.8377 0.106933L32.784 1.15716C32.7143 1.22591 32.6794 1.31756 32.6794 1.40922V3.63571C32.6794 3.73119 32.6407 3.82284 32.5748 3.88777L30.4054 6.04934C30.2621 6.19064 30.0296 6.19064 29.8863 6.04934L27.7169 3.88777C27.6433 3.82284 27.6046 3.73119 27.6046 3.63571V1.40922C27.6046 1.31374 27.5658 1.22209 27.5 1.15716L26.4462 0.106933C26.3765 0.0381902 26.2835 0 26.1867 0H21.4179C21.321 0 21.228 0.0381902 21.1583 0.106933L20.142 1.1199L19.1257 0.106933C19.0559 0.0381902 18.963 0 18.8661 0Z"/>
</mask>
<path fill-rule="evenodd" clip-rule="evenodd" d="M18.8661 0H14.0973C14.0004 0 13.9075 0.0381902 13.8377 0.106933L12.784 1.15716C12.7182 1.22591 12.6794 1.31374 12.6794 1.40922V5.43447C12.6794 5.75527 12.2843 5.91567 12.0557 5.68653L6.44624 0.106933C6.37651 0.0381902 6.28354 0 6.18669 0H1.42174C1.32489 0 1.22804 0.0381902 1.16218 0.106933L0.104597 1.15716C0.0387395 1.22209 0 1.31374 0 1.40922V18.7705C0 18.866 0.0387395 18.9576 0.104597 19.0226L1.16218 20.0766C1.23191 20.1454 1.32489 20.1835 1.42174 20.1835H6.19056C6.28741 20.1835 6.38039 20.1454 6.45012 20.0766L7.50383 19.0264C7.57356 18.9576 7.60843 18.866 7.60843 18.7743V14.7491C7.60843 14.4283 8.00357 14.2679 8.23213 14.497L13.8416 20.0766C13.9113 20.1454 14.0043 20.1835 14.1012 20.1835H18.8661C18.963 20.1835 19.0559 20.1454 19.1257 20.0766L20.1794 19.0264C20.2452 18.9576 20.284 18.866 20.284 18.7743V9.1111L26.2332 15.0279C26.299 15.0966 26.3378 15.1883 26.3378 15.2799V18.7667C26.3378 18.8533 26.3697 18.9368 26.4247 19H23.9553C23.8584 19 23.7655 19.0382 23.6957 19.1069L20.1046 22.6777C20.0349 22.7465 20 22.8343 20 22.9298V35.2461C20 35.3416 20.0387 35.4333 20.1046 35.4982L23.6957 39.069C23.7655 39.1377 23.8584 39.1759 23.9553 39.1759H36.3287C36.4255 39.1759 36.5185 39.1377 36.5882 39.069L40.1794 35.4982C40.2452 35.4294 40.284 35.3416 40.284 35.2461V31.7594C40.284 31.6639 40.2452 31.576 40.1794 31.5073L39.1257 30.4571C39.0559 30.3883 38.963 30.3501 38.8661 30.3501H33.0436C32.8421 30.3501 32.6794 30.5105 32.6794 30.7091V31.2553C32.6794 31.4538 32.5167 31.6142 32.3153 31.6142H27.9726C27.7711 31.6142 27.6084 31.4538 27.6084 31.2553V26.9283C27.6084 26.7297 27.7711 26.5693 27.9726 26.5693H32.3153C32.5167 26.5693 32.6794 26.7297 32.6794 26.9283V27.4553C32.6794 27.6539 32.8421 27.8143 33.0436 27.8143H38.8661C38.963 27.8143 39.0559 27.7761 39.1218 27.7112L40.1755 26.6762C40.2452 26.6075 40.284 26.5158 40.284 26.4204V22.9336C40.284 22.8381 40.2452 22.7465 40.1794 22.6815L36.5882 19.1108C36.5185 19.0382 36.4255 19 36.3287 19H33.8609C33.9126 18.9358 33.9423 18.858 33.9423 18.7743V15.2876C33.9423 15.1921 33.9811 15.1004 34.0469 15.0355L40.1755 8.94034C40.2414 8.87159 40.2801 8.78376 40.2801 8.68828V1.40922C40.2801 1.31374 40.2414 1.22209 40.1755 1.15716L39.1218 0.106933C39.0559 0.0381902 38.9591 0 38.8622 0H34.0973C34.0004 0 33.9075 0.0381902 33.8377 0.106933L32.784 1.15716C32.7143 1.22591 32.6794 1.31756 32.6794 1.40922V3.63571C32.6794 3.73119 32.6407 3.82284 32.5748 3.88777L30.4054 6.04934C30.2621 6.19064 30.0296 6.19064 29.8863 6.04934L27.7169 3.88777C27.6433 3.82284 27.6046 3.73119 27.6046 3.63571V1.40922C27.6046 1.31374 27.5658 1.22209 27.5 1.15716L26.4462 0.106933C26.3765 0.0381902 26.2835 0 26.1867 0H21.4179C21.321 0 21.228 0.0381902 21.1583 0.106933L20.142 1.1199L19.1257 0.106933C19.0559 0.0381902 18.963 0 18.8661 0Z" fill="#042D36"/>
<path d="M13.8377 0.106933L13.4867 -0.24914L13.4848 -0.247205L13.8377 0.106933ZM12.784 1.15716L12.431 0.802932L12.423 0.811267L12.784 1.15716ZM12.0557 5.68653L12.4097 5.33342L12.4083 5.33203L12.0557 5.68653ZM6.44624 0.106933L6.79886 -0.247567L6.79726 -0.249136L6.44624 0.106933ZM1.16218 0.106933L1.51461 0.461828L1.52323 0.452828L1.16218 0.106933ZM0.104597 1.15716L0.455619 1.51324L0.456914 1.51195L0.104597 1.15716ZM0.104597 19.0226L0.457563 18.6684L0.455619 18.6665L0.104597 19.0226ZM1.16218 20.0766L0.809217 20.4308L0.811167 20.4327L1.16218 20.0766ZM6.45012 20.0766L6.80114 20.4327L6.80309 20.4308L6.45012 20.0766ZM7.50383 19.0264L7.1528 18.6703L7.15086 18.6722L7.50383 19.0264ZM8.23213 14.497L7.87813 14.8501L7.87952 14.8515L8.23213 14.497ZM13.8416 20.0766L13.489 20.4311L13.4906 20.4327L13.8416 20.0766ZM19.1257 20.0766L19.4767 20.4327L19.4786 20.4308L19.1257 20.0766ZM20.1794 19.0264L20.5324 19.3806L20.5404 19.3723L20.1794 19.0264ZM20.284 9.1111L20.6366 8.75658L19.784 7.90864V9.1111H20.284ZM26.2332 15.0279L26.5943 14.6819L26.5858 14.6733L26.2332 15.0279ZM26.4247 19V19.5H27.5236L26.8017 18.6715L26.4247 19ZM23.6957 19.1069L23.3447 18.7509L23.3432 18.7524L23.6957 19.1069ZM20.1046 22.6777L20.4556 23.0338L20.4571 23.0323L20.1046 22.6777ZM20.1046 35.4982L20.4571 35.1436L20.4556 35.1421L20.1046 35.4982ZM23.6957 39.069L23.3432 39.4235L23.3447 39.425L23.6957 39.069ZM36.5882 39.069L36.9393 39.4251L36.9408 39.4235L36.5882 39.069ZM40.1794 35.4982L40.532 35.8528L40.5404 35.8441L40.1794 35.4982ZM40.1794 31.5073L40.5405 31.1613L40.5323 31.1532L40.1794 31.5073ZM39.1257 30.4571L39.4786 30.1029L39.4767 30.101L39.1257 30.4571ZM39.1218 27.7112L38.7714 27.3545L38.7708 27.3551L39.1218 27.7112ZM40.1755 26.6762L40.5259 27.033L40.5265 27.0323L40.1755 26.6762ZM40.1794 22.6815L39.8268 23.0361L39.8284 23.0376L40.1794 22.6815ZM36.5882 19.1108L36.2276 19.4573L36.2357 19.4653L36.5882 19.1108ZM33.8609 19L33.4713 18.6866L32.8169 19.5H33.8609V19ZM34.0469 15.0355L34.3979 15.3916L34.3995 15.39L34.0469 15.0355ZM40.1755 8.94034L40.5282 9.29496L40.5366 9.28623L40.1755 8.94034ZM40.1755 1.15716L39.8225 1.51131L39.8245 1.51323L40.1755 1.15716ZM39.1218 0.106933L38.7606 0.452919L38.7688 0.46107L39.1218 0.106933ZM33.8377 0.106933L33.4867 -0.249136L33.4848 -0.247205L33.8377 0.106933ZM32.784 1.15716L33.135 1.51324L33.137 1.5113L32.784 1.15716ZM32.5748 3.88777L32.2238 3.53169L32.2219 3.53357L32.5748 3.88777ZM30.4054 6.04934L30.7564 6.40541L30.7583 6.40353L30.4054 6.04934ZM29.8863 6.04934L29.5334 6.40353L29.5353 6.40541L29.8863 6.04934ZM27.7169 3.88777L28.0698 3.53357L28.059 3.52285L28.0476 3.51279L27.7169 3.88777ZM27.5 1.15716L27.147 1.51131L27.1489 1.51323L27.5 1.15716ZM26.4462 0.106933L26.7992 -0.247211L26.7973 -0.249135L26.4462 0.106933ZM21.1583 0.106933L20.8073 -0.24914L20.8053 -0.247205L21.1583 0.106933ZM20.142 1.1199L19.789 1.47404L20.142 1.82584L20.495 1.47404L20.142 1.1199ZM19.1257 0.106933L19.4786 -0.24721L19.4767 -0.249135L19.1257 0.106933ZM14.0973 0.5H18.8661V-0.5H14.0973V0.5ZM14.1888 0.463C14.1656 0.485783 14.1328 0.5 14.0973 0.5V-0.5C13.8681 -0.5 13.6493 -0.409402 13.4867 -0.249135L14.1888 0.463ZM13.137 1.5113L14.1907 0.461071L13.4848 -0.247205L12.431 0.803027L13.137 1.5113ZM13.1794 1.40922C13.1794 1.45466 13.1597 1.48778 13.1451 1.50306L12.423 0.811267C12.2766 0.964031 12.1794 1.17282 12.1794 1.40922H13.1794ZM13.1794 5.43447V1.40922H12.1794V5.43447H13.1794ZM11.7017 6.03963C12.2359 6.57521 13.1794 6.21393 13.1794 5.43447H12.1794C12.1794 5.40816 12.1887 5.37668 12.208 5.3498C12.2255 5.32536 12.2467 5.31096 12.2657 5.30326C12.2847 5.29556 12.3087 5.29165 12.3362 5.29649C12.3665 5.30181 12.3929 5.31652 12.4097 5.33342L11.7017 6.03963ZM6.09364 0.461429L11.7031 6.04102L12.4083 5.33203L6.79885 -0.247563L6.09364 0.461429ZM6.18669 0.5C6.15117 0.5 6.11833 0.485782 6.09522 0.463002L6.79726 -0.249136C6.63469 -0.409402 6.41591 -0.5 6.18669 -0.5V0.5ZM1.42174 0.5H6.18669V-0.5H1.42174V0.5ZM1.52323 0.452828C1.50367 0.473244 1.48406 0.484597 1.4689 0.49077C1.4538 0.496919 1.4382 0.5 1.42174 0.5V-0.5C1.20093 -0.5 0.969523 -0.414729 0.801134 -0.238962L1.52323 0.452828ZM0.456914 1.51195L1.5145 0.461718L0.809866 -0.247852L-0.247721 0.80238L0.456914 1.51195ZM0.5 1.40922C0.5 1.44674 0.485679 1.4836 0.455617 1.51323L-0.246424 0.801096C-0.408201 0.960579 -0.5 1.18075 -0.5 1.40922H0.5ZM0.5 18.7705V1.40922H-0.5V18.7705H0.5ZM0.455619 18.6665C0.485678 18.6961 0.5 18.733 0.5 18.7705H-0.5C-0.5 18.999 -0.4082 19.2191 -0.246426 19.3786L0.455619 18.6665ZM1.51514 19.7225L0.457557 18.6684L-0.248364 19.3767L0.809223 20.4308L1.51514 19.7225ZM1.42174 19.6835C1.45726 19.6835 1.49009 19.6978 1.5132 19.7205L0.811167 20.4327C0.973736 20.5929 1.19252 20.6835 1.42174 20.6835V19.6835ZM6.19056 19.6835H1.42174V20.6835H6.19056V19.6835ZM6.0991 19.7205C6.12221 19.6978 6.15504 19.6835 6.19056 19.6835V20.6835C6.41979 20.6835 6.63857 20.5929 6.80113 20.4327L6.0991 19.7205ZM7.15086 18.6722L6.09715 19.7225L6.80309 20.4308L7.8568 19.3805L7.15086 18.6722ZM7.10843 18.7743C7.10843 18.7401 7.12173 18.701 7.15281 18.6703L7.85485 19.3825C8.02539 19.2143 8.10843 18.9919 8.10843 18.7743H7.10843ZM7.10843 14.7491V18.7743H8.10843V14.7491H7.10843ZM8.58613 14.1439C8.05191 13.6083 7.10843 13.9696 7.10843 14.7491H8.10843C8.10843 14.7754 8.09919 14.8069 8.07989 14.8337C8.06234 14.8582 8.04119 14.8726 8.02219 14.8803C8.00317 14.888 7.97911 14.8919 7.95161 14.8871C7.92135 14.8817 7.89499 14.867 7.87813 14.8501L8.58613 14.1439ZM14.1942 19.7221L8.58474 14.1425L7.87952 14.8515L13.489 20.4311L14.1942 19.7221ZM14.1012 19.6835C14.1367 19.6835 14.1695 19.6978 14.1926 19.7205L13.4906 20.4327C13.6532 20.5929 13.8719 20.6835 14.1012 20.6835V19.6835ZM18.8661 19.6835H14.1012V20.6835H18.8661V19.6835ZM18.7746 19.7205C18.7978 19.6978 18.8306 19.6835 18.8661 19.6835V20.6835C19.0953 20.6835 19.3141 20.5929 19.4767 20.4327L18.7746 19.7205ZM19.8264 18.6722L18.7727 19.7225L19.4786 20.4308L20.5323 19.3805L19.8264 18.6722ZM19.784 18.7743C19.784 18.7499 19.789 18.7305 19.7949 18.7165C19.8007 18.7025 19.8087 18.6906 19.8183 18.6805L20.5404 19.3723C20.6888 19.2174 20.784 19.0041 20.784 18.7743H19.784ZM19.784 9.1111V18.7743H20.784V9.1111H19.784ZM19.9314 9.46562L25.8806 15.3824L26.5858 14.6733L20.6366 8.75658L19.9314 9.46562ZM25.8721 15.3738C25.8625 15.3637 25.8546 15.3518 25.8487 15.3378C25.8428 15.3237 25.8378 15.3043 25.8378 15.2799H26.8378C26.8378 15.0501 26.7426 14.8369 26.5942 14.682L25.8721 15.3738ZM25.8378 15.2799V18.7667H26.8378V15.2799H25.8378ZM25.8378 18.7667C25.8378 18.9745 25.9136 19.1745 26.0478 19.3285L26.8017 18.6715C26.8257 18.699 26.8378 18.7322 26.8378 18.7667H25.8378ZM23.9553 19.5H26.4247V18.5H23.9553V19.5ZM24.0468 19.463C24.0237 19.4858 23.9908 19.5 23.9553 19.5V18.5C23.7261 18.5 23.5073 18.5906 23.3447 18.7509L24.0468 19.463ZM20.4571 23.0323L24.0483 19.4615L23.3432 18.7524L19.752 22.3232L20.4571 23.0323ZM20.5 22.9298C20.5 22.9435 20.4973 22.9625 20.4887 22.9835C20.48 23.0048 20.4677 23.0219 20.4556 23.0338L19.7536 22.3217C19.585 22.4878 19.5 22.7055 19.5 22.9298H20.5ZM20.5 35.2461V22.9298H19.5V35.2461H20.5ZM20.4556 35.1421C20.4857 35.1718 20.5 35.2086 20.5 35.2461H19.5C19.5 35.4746 19.5918 35.6948 19.7536 35.8543L20.4556 35.1421ZM24.0483 38.7144L20.4571 35.1436L19.752 35.8527L23.3432 39.4235L24.0483 38.7144ZM23.9553 38.6759C23.9908 38.6759 24.0237 38.6901 24.0468 38.7129L23.3447 39.425C23.5073 39.5853 23.7261 39.6759 23.9553 39.6759V38.6759ZM36.3287 38.6759H23.9553V39.6759H36.3287V38.6759ZM36.2372 38.7129C36.2603 38.6901 36.2931 38.6759 36.3287 38.6759V39.6759C36.5579 39.6759 36.7767 39.5853 36.9392 39.4251L36.2372 38.7129ZM39.8268 35.1436L36.2357 38.7144L36.9408 39.4235L40.5319 35.8527L39.8268 35.1436ZM39.784 35.2461C39.784 35.2007 39.8037 35.1676 39.8183 35.1523L40.5404 35.8441C40.6868 35.6913 40.784 35.4825 40.784 35.2461H39.784ZM39.784 31.7594V35.2461H40.784V31.7594H39.784ZM39.8183 31.8532C39.8037 31.8379 39.784 31.8048 39.784 31.7594H40.784C40.784 31.523 40.6868 31.3142 40.5404 31.1614L39.8183 31.8532ZM38.7727 30.8112L39.8264 31.8614L40.5323 31.1532L39.4786 30.1029L38.7727 30.8112ZM38.8661 30.8501C38.8306 30.8501 38.7978 30.8359 38.7746 30.8131L39.4767 30.101C39.3141 29.9407 39.0953 29.8501 38.8661 29.8501V30.8501ZM33.0436 30.8501H38.8661V29.8501H33.0436V30.8501ZM33.1794 30.7091C33.1794 30.7934 33.1115 30.8501 33.0436 30.8501V29.8501C32.5727 29.8501 32.1794 30.2277 32.1794 30.7091H33.1794ZM33.1794 31.2553V30.7091H32.1794V31.2553H33.1794ZM32.3153 32.1142C32.7861 32.1142 33.1794 31.7367 33.1794 31.2553H32.1794C32.1794 31.171 32.2473 31.1142 32.3153 31.1142V32.1142ZM27.9726 32.1142H32.3153V31.1142H27.9726V32.1142ZM27.1084 31.2553C27.1084 31.7367 27.5017 32.1142 27.9726 32.1142V31.1142C28.0405 31.1142 28.1084 31.171 28.1084 31.2553H27.1084ZM27.1084 26.9283V31.2553H28.1084V26.9283H27.1084ZM27.9726 26.0693C27.5017 26.0693 27.1084 26.4469 27.1084 26.9283H28.1084C28.1084 27.0125 28.0405 27.0693 27.9726 27.0693V26.0693ZM32.3153 26.0693H27.9726V27.0693H32.3153V26.0693ZM33.1794 26.9283C33.1794 26.4469 32.7861 26.0693 32.3153 26.0693V27.0693C32.2473 27.0693 32.1794 27.0126 32.1794 26.9283H33.1794ZM33.1794 27.4553V26.9283H32.1794V27.4553H33.1794ZM33.0436 27.3143C33.1115 27.3143 33.1794 27.3711 33.1794 27.4553H32.1794C32.1794 27.9368 32.5727 28.3143 33.0436 28.3143V27.3143ZM38.8661 27.3143H33.0436V28.3143H38.8661V27.3143ZM38.7708 27.3551C38.8006 27.3258 38.8345 27.3143 38.8661 27.3143V28.3143C39.0914 28.3143 39.3113 28.2265 39.4728 28.0673L38.7708 27.3551ZM39.8251 26.3195L38.7714 27.3545L39.4722 28.0679L40.5259 27.033L39.8251 26.3195ZM39.784 26.4204C39.784 26.3788 39.8012 26.3431 39.8245 26.3202L40.5265 27.0323C40.6893 26.8718 40.784 26.6529 40.784 26.4204H39.784ZM39.784 22.9336V26.4204H40.784V22.9336H39.784ZM39.8284 23.0376C39.7983 23.008 39.784 22.9711 39.784 22.9336H40.784C40.784 22.7051 40.6922 22.485 40.5304 22.3255L39.8284 23.0376ZM36.2357 19.4653L39.8268 23.0361L40.5319 22.327L36.9408 18.7562L36.2357 19.4653ZM36.3287 19.5C36.2916 19.5 36.2537 19.4842 36.2277 19.4572L36.9487 18.7643C36.7833 18.5921 36.5595 18.5 36.3287 18.5V19.5ZM33.8609 19.5H36.3287V18.5H33.8609V19.5ZM34.2505 19.3134C34.368 19.1673 34.4423 18.9806 34.4423 18.7743H33.4423C33.4423 18.7354 33.4571 18.7043 33.4713 18.6866L34.2505 19.3134ZM34.4423 18.7743V15.2876H33.4423V18.7743H34.4423ZM34.4423 15.2876C34.4423 15.3251 34.428 15.3619 34.3979 15.3916L33.6959 14.6794C33.5341 14.8389 33.4423 15.0591 33.4423 15.2876H34.4423ZM34.3995 15.39L40.5281 9.29486L39.8229 8.58582L33.6943 14.681L34.3995 15.39ZM40.5366 9.28623C40.6829 9.13348 40.7801 8.92469 40.7801 8.68828H39.7801C39.7801 8.64283 39.7998 8.60971 39.8145 8.59444L40.5366 9.28623ZM40.7801 8.68828V1.40922H39.7801V8.68828H40.7801ZM40.7801 1.40922C40.7801 1.18074 40.6883 0.960573 40.5265 0.801097L39.8245 1.51323C39.7944 1.4836 39.7801 1.44675 39.7801 1.40922H40.7801ZM40.5285 0.803027L39.4748 -0.247205L38.7688 0.46107L39.8225 1.5113L40.5285 0.803027ZM39.4828 -0.238962C39.3144 -0.414732 39.083 -0.5 38.8622 -0.5V0.5C38.8458 0.5 38.8302 0.496919 38.8151 0.49077C38.7999 0.484599 38.7803 0.473246 38.7607 0.452827L39.4828 -0.238962ZM38.8622 -0.5H34.0973V0.5H38.8622V-0.5ZM34.0973 -0.5C33.8681 -0.5 33.6493 -0.409407 33.4867 -0.24913L34.1888 0.462996C34.1656 0.485788 34.1328 0.5 34.0973 0.5V-0.5ZM33.4848 -0.247205L32.431 0.803027L33.137 1.5113L34.1907 0.46107L33.4848 -0.247205ZM32.433 0.801092C32.2625 0.969213 32.1794 1.19163 32.1794 1.40922H33.1794C33.1794 1.4435 33.1661 1.4826 33.135 1.51324L32.433 0.801092ZM32.1794 1.40922V3.63571H33.1794V1.40922H32.1794ZM32.1794 3.63571C32.1794 3.5982 32.1937 3.56134 32.2238 3.5317L32.9258 4.24384C33.0876 4.08435 33.1794 3.86418 33.1794 3.63571H32.1794ZM32.2219 3.53357L30.0525 5.69514L30.7583 6.40353L32.9277 4.24196L32.2219 3.53357ZM30.0544 5.69327C30.1057 5.64266 30.186 5.64266 30.2373 5.69326L29.5353 6.40541C29.8733 6.73861 30.4184 6.73862 30.7564 6.4054L30.0544 5.69327ZM30.2392 5.69514L28.0698 3.53357L27.364 4.24196L29.5334 6.40353L30.2392 5.69514ZM28.0476 3.51279C28.087 3.5475 28.1046 3.59499 28.1046 3.63571H27.1046C27.1046 3.86739 27.1996 4.09819 27.3862 4.26274L28.0476 3.51279ZM28.1046 3.63571V1.40922H27.1046V3.63571H28.1046ZM28.1046 1.40922C28.1046 1.18075 28.0128 0.960582 27.851 0.801097L27.1489 1.51323C27.1189 1.48359 27.1046 1.44674 27.1046 1.40922H28.1046ZM27.8529 0.803026L26.7992 -0.247205L26.0933 0.461071L27.147 1.5113L27.8529 0.803026ZM26.7973 -0.249135C26.6347 -0.409405 26.4159 -0.5 26.1867 -0.5V0.5C26.1512 0.5 26.1183 0.485785 26.0952 0.463L26.7973 -0.249135ZM26.1867 -0.5H21.4179V0.5H26.1867V-0.5ZM21.4179 -0.5C21.1886 -0.5 20.9699 -0.409402 20.8073 -0.249135L21.5093 0.463C21.4862 0.485782 21.4534 0.5 21.4179 0.5V-0.5ZM20.8053 -0.247205L19.789 0.76576L20.495 1.47404L21.5113 0.461071L20.8053 -0.247205ZM18.7727 0.461071L19.789 1.47404L20.495 0.76576L19.4786 -0.247205L18.7727 0.461071ZM18.8661 0.5C18.8306 0.5 18.7978 0.485782 18.7746 0.463L19.4767 -0.249135C19.3141 -0.409402 19.0953 -0.5 18.8661 -0.5V0.5Z" fill="#CCDEE2" mask="url(#path-1-inside-1)"/>
</svg>
